<?xml version="1.0" standalone="no"?>
<!DOCTYPE svg PUBLIC "-//W3C//DTD SVG 20010904//EN"
 "http://www.w3.org/TR/2001/REC-SVG-20010904/DTD/svg10.dtd">
<svg version="1.0" xmlns="http://www.w3.org/2000/svg"
 width="260.000000pt" height="260.000000pt" viewBox="0 0 260.000000 260.000000"
 preserveAspectRatio="xMidYMid meet">
<metadata>
Created by potrace 1.11, written by Peter Selinger 2001-2013
</metadata>
<g transform="translate(0.000000,260.000000) scale(0.100000,-0.100000)"
fill="#000000" stroke="none">
<path d="M2038 1855 c-2 -2 -25 -6 -53 -9 -76 -10 -179 -37 -187 -50 -10 -16
-14 -1023 -4 -1033 6 -6 309 -4 315 3 3 3 5 80 6 172 l0 167 50 3 c207 13 370
113 414 256 42 135 7 291 -84 375 -87 80 -181 112 -337 116 -64 2 -118 2 -120
0z m227 -329 c27 -33 30 -72 9 -118 -18 -41 -76 -77 -116 -72 -13 1 -26 3 -30
3 -8 1 0 200 9 214 3 5 28 7 56 4 39 -3 56 -10 72 -31z"/>
<path d="M1140 1819 c-98 -15 -110 -17 -144 -29 -33 -11 -36 -15 -37 -53 0
-23 -2 -123 -4 -222 -2 -99 -6 -305 -9 -457 l-6 -278 48 -1 c167 -6 272 8 387
49 224 79 351 258 360 508 9 232 -100 402 -300 469 -54 18 -218 26 -295 14z
m207 -314 c152 -64 131 -353 -31 -426 -22 -10 -43 -16 -47 -13 -4 2 -6 22 -4
45 2 22 7 96 11 162 4 67 8 138 9 157 2 19 3 47 4 63 1 31 8 33 58 12z"/>
<path d="M335 1752 c-77 -26 -138 -66 -190 -124 -143 -159 -173 -394 -75 -587
131 -260 466 -321 676 -124 90 84 144 209 150 344 10 240 -92 412 -284 482
-78 27 -210 32 -277 9z m201 -347 c99 -106 44 -295 -86 -295 -49 0 -86 25
-110 76 -60 123 1 254 119 254 37 0 49 -5 77 -35z"/>
</g>
</svg>
